<svg width="431" height="461" viewBox="0 0 431 461" fill="none" xmlns="http://www.w3.org/2000/svg">
<g filter="url(#filter0_d_1393_470)">
<g filter="url(#filter1_b_1393_470)">
<rect x="4.71558" y="0.103516" width="419.728" height="280.871" rx="10" fill="white" fill-opacity="0.05"/>
</g>
<g clip-path="url(#clip0_1393_470)">
<path d="M86.5734 57.9609H38.7669C36.2282 57.9609 34.1702 60.0273 34.1702 62.5763V65.3456C34.1702 67.8946 36.2282 69.9609 38.7669 69.9609H86.5734C89.1121 69.9609 91.1702 67.8946 91.1702 65.3456V62.5763C91.1702 60.0273 89.1121 57.9609 86.5734 57.9609Z" fill="white" fill-opacity="0.05"/>
<path d="M123.639 57.9609H103.701C101.199 57.9609 99.1702 60.0273 99.1702 62.5763V65.3456C99.1702 67.8946 101.199 69.9609 103.701 69.9609H123.639C126.141 69.9609 128.17 67.8946 128.17 65.3456V62.5763C128.17 60.0273 126.141 57.9609 123.639 57.9609Z" fill="white" fill-opacity="0.05"/>
<path d="M147.726 57.9609H140.615C138.16 57.9609 136.17 60.0273 136.17 62.5763V65.3456C136.17 67.8946 138.16 69.9609 140.615 69.9609H147.726C150.18 69.9609 152.17 67.8946 152.17 65.3456V62.5763C152.17 60.0273 150.18 57.9609 147.726 57.9609Z" fill="white" fill-opacity="0.05"/>
<path d="M41.5548 78.9609H38.7856C36.2365 78.9609 34.1702 81.0273 34.1702 83.5763V86.3456C34.1702 88.8946 36.2365 90.9609 38.7856 90.9609H41.5548C44.1038 90.9609 46.1702 88.8946 46.1702 86.3456V83.5763C46.1702 81.0273 44.1038 78.9609 41.5548 78.9609Z" fill="white" fill-opacity="0.05"/>
<path d="M105.498 78.9609H57.8423C55.262 78.9609 53.1702 81.0273 53.1702 83.5763V86.3456C53.1702 88.8946 55.262 90.9609 57.8423 90.9609H105.498C108.078 90.9609 110.17 88.8946 110.17 86.3456V83.5763C110.17 81.0273 108.078 78.9609 105.498 78.9609Z" fill="white" fill-opacity="0.05"/>
<path d="M158.476 78.9609H121.864C119.272 78.9609 117.17 81.0273 117.17 83.5763V86.3456C117.17 88.8946 119.272 90.9609 121.864 90.9609H158.476C161.069 90.9609 163.17 88.8946 163.17 86.3456V83.5763C163.17 81.0273 161.069 78.9609 158.476 78.9609Z" fill="white" fill-opacity="0.05"/>
<path d="M92.5378 100.961H38.8025C36.2441 100.961 34.1702 103.027 34.1702 105.576V108.346C34.1702 110.895 36.2441 112.961 38.8025 112.961H92.5378C95.0962 112.961 97.1702 110.895 97.1702 108.346V105.576C97.1702 103.027 95.0962 100.961 92.5378 100.961Z" fill="white" fill-opacity="0.05"/>
<path d="M151.527 100.961H108.813C106.249 100.961 104.17 103.027 104.17 105.576V108.346C104.17 110.895 106.249 112.961 108.813 112.961H151.527C154.091 112.961 156.17 110.895 156.17 108.346V105.576C156.17 103.027 154.091 100.961 151.527 100.961Z" fill="white" fill-opacity="0.05"/>
<path d="M229.565 100.961H168.775C166.232 100.961 164.17 103.027 164.17 105.576V108.346C164.17 110.895 166.232 112.961 168.775 112.961H229.565C232.108 112.961 234.17 110.895 234.17 108.346V105.576C234.17 103.027 232.108 100.961 229.565 100.961Z" fill="white" fill-opacity="0.05"/>
<path d="M273.545 100.961H245.795C243.241 100.961 241.17 103.027 241.17 105.576V108.346C241.17 110.895 243.241 112.961 245.795 112.961H273.545C276.099 112.961 278.17 110.895 278.17 108.346V105.576C278.17 103.027 276.099 100.961 273.545 100.961Z" fill="white" fill-opacity="0.05"/>
<path d="M327.57 100.961H290.77C288.229 100.961 286.17 103.027 286.17 105.576V108.346C286.17 110.895 288.229 112.961 290.77 112.961H327.57C330.11 112.961 332.17 110.895 332.17 108.346V105.576C332.17 103.027 330.11 100.961 327.57 100.961Z" fill="white" fill-opacity="0.05"/>
<path d="M378.489 100.961H343.851C341.266 100.961 339.17 103.027 339.17 105.576V108.346C339.17 110.895 341.266 112.961 343.851 112.961H378.489C381.074 112.961 383.17 110.895 383.17 108.346V105.576C383.17 103.027 381.074 100.961 378.489 100.961Z" fill="white" fill-opacity="0.05"/>
<path d="M92.5378 249.961H38.8025C36.2441 249.961 34.1702 252.027 34.1702 254.576V257.346C34.1702 259.895 36.2441 261.961 38.8025 261.961H92.5378C95.0962 261.961 97.1702 259.895 97.1702 257.346V254.576C97.1702 252.027 95.0962 249.961 92.5378 249.961Z" fill="white" fill-opacity="0.05"/>
<path d="M151.527 249.961H108.813C106.249 249.961 104.17 252.027 104.17 254.576V257.346C104.17 259.895 106.249 261.961 108.813 261.961H151.527C154.091 261.961 156.17 259.895 156.17 257.346V254.576C156.17 252.027 154.091 249.961 151.527 249.961Z" fill="white" fill-opacity="0.05"/>
<path d="M229.565 249.961H168.775C166.232 249.961 164.17 252.027 164.17 254.576V257.346C164.17 259.895 166.232 261.961 168.775 261.961H229.565C232.108 261.961 234.17 259.895 234.17 257.346V254.576C234.17 252.027 232.108 249.961 229.565 249.961Z" fill="white" fill-opacity="0.05"/>
<path d="M273.545 249.961H245.795C243.241 249.961 241.17 252.027 241.17 254.576V257.346C241.17 259.895 243.241 261.961 245.795 261.961H273.545C276.099 261.961 278.17 259.895 278.17 257.346V254.576C278.17 252.027 276.099 249.961 273.545 249.961Z" fill="white" fill-opacity="0.05"/>
<path d="M327.57 249.961H290.77C288.229 249.961 286.17 252.027 286.17 254.576V257.346C286.17 259.895 288.229 261.961 290.77 261.961H327.57C330.11 261.961 332.17 259.895 332.17 257.346V254.576C332.17 252.027 330.11 249.961 327.57 249.961Z" fill="white" fill-opacity="0.05"/>
<path d="M378.489 249.961H343.851C341.266 249.961 339.17 252.027 339.17 254.576V257.346C339.17 259.895 341.266 261.961 343.851 261.961H378.489C381.074 261.961 383.17 259.895 383.17 257.346V254.576C383.17 252.027 381.074 249.961 378.489 249.961Z" fill="white" fill-opacity="0.05"/>
<path d="M73.5868 121.961H38.7535C36.2222 121.961 34.1702 124.027 34.1702 126.576V129.346C34.1702 131.895 36.2222 133.961 38.7535 133.961H73.5868C76.1181 133.961 78.1702 131.895 78.1702 129.346V126.576C78.1702 124.027 76.1181 121.961 73.5868 121.961Z" fill="white" fill-opacity="0.05"/>
<path d="M147.587 121.961H90.7535C88.2222 121.961 86.1702 124.027 86.1702 126.576V129.346C86.1702 131.895 88.2222 133.961 90.7535 133.961H147.587C150.118 133.961 152.17 131.895 152.17 129.346V126.576C152.17 124.027 150.118 121.961 147.587 121.961Z" fill="white" fill-opacity="0.05"/>
<path d="M221.522 121.961H164.818C162.251 121.961 160.17 124.027 160.17 126.576V129.346C160.17 131.895 162.251 133.961 164.818 133.961H221.522C224.089 133.961 226.17 131.895 226.17 129.346V126.576C226.17 124.027 224.089 121.961 221.522 121.961Z" fill="white" fill-opacity="0.05"/>
<path d="M73.5868 227.961H38.7535C36.2222 227.961 34.1702 230.027 34.1702 232.576V235.346C34.1702 237.895 36.2222 239.961 38.7535 239.961H73.5868C76.1181 239.961 78.1702 237.895 78.1702 235.346V232.576C78.1702 230.027 76.1181 227.961 73.5868 227.961Z" fill="white" fill-opacity="0.05"/>
<path d="M147.587 227.961H90.7535C88.2222 227.961 86.1702 230.027 86.1702 232.576V235.346C86.1702 237.895 88.2222 239.961 90.7535 239.961H147.587C150.118 239.961 152.17 237.895 152.17 235.346V232.576C152.17 230.027 150.118 227.961 147.587 227.961Z" fill="white" fill-opacity="0.05"/>
<path d="M221.522 227.961H164.818C162.251 227.961 160.17 230.027 160.17 232.576V235.346C160.17 237.895 162.251 239.961 164.818 239.961H221.522C224.089 239.961 226.17 237.895 226.17 235.346V232.576C226.17 230.027 224.089 227.961 221.522 227.961Z" fill="white" fill-opacity="0.05"/>
<path d="M43.5035 142.961H38.8368C36.2595 142.961 34.1702 145.027 34.1702 147.576V150.346C34.1702 152.895 36.2595 154.961 38.8368 154.961H43.5035C46.0808 154.961 48.1702 152.895 48.1702 150.346V147.576C48.1702 145.027 46.0808 142.961 43.5035 142.961Z" fill="white" fill-opacity="0.05"/>
<path d="M123.55 142.961H59.7904C57.2387 142.961 55.1702 145.027 55.1702 147.576V150.346C55.1702 152.895 57.2387 154.961 59.7904 154.961H123.55C126.102 154.961 128.17 152.895 128.17 150.346V147.576C128.17 145.027 126.102 142.961 123.55 142.961Z" fill="white" fill-opacity="0.05"/>
<path d="M153.587 142.961H140.753C138.222 142.961 136.17 145.027 136.17 147.576V150.346C136.17 152.895 138.222 154.961 140.753 154.961H153.587C156.118 154.961 158.17 152.895 158.17 150.346V147.576C158.17 145.027 156.118 142.961 153.587 142.961Z" fill="white" fill-opacity="0.05"/>
<path d="M220.482 142.961H169.857C167.269 142.961 165.17 145.027 165.17 147.576V150.346C165.17 152.895 167.269 154.961 169.857 154.961H220.482C223.071 154.961 225.17 152.895 225.17 150.346V147.576C225.17 145.027 223.071 142.961 220.482 142.961Z" fill="white" fill-opacity="0.05"/>
<path d="M267.519 142.961H236.821C234.252 142.961 232.17 145.027 232.17 147.576V150.346C232.17 152.895 234.252 154.961 236.821 154.961H267.519C270.088 154.961 272.17 152.895 272.17 150.346V147.576C272.17 145.027 270.088 142.961 267.519 142.961Z" fill="white" fill-opacity="0.05"/>
<path d="M348.545 142.961H283.795C281.241 142.961 279.17 145.027 279.17 147.576V150.346C279.17 152.895 281.241 154.961 283.795 154.961H348.545C351.099 154.961 353.17 152.895 353.17 150.346V147.576C353.17 145.027 351.099 142.961 348.545 142.961Z" fill="white" fill-opacity="0.05"/>
<path d="M68.5273 163.961H38.813C36.2488 163.961 34.1702 166.027 34.1702 168.576V171.346C34.1702 173.895 36.2488 175.961 38.813 175.961H68.5273C71.0915 175.961 73.1702 173.895 73.1702 171.346V168.576C73.1702 166.027 71.0915 163.961 68.5273 163.961Z" fill="white" fill-opacity="0.05"/>
<path d="M81.5273 185.961H38.813C36.2488 185.961 34.1702 188.027 34.1702 190.576V193.346C34.1702 195.895 36.2488 197.961 38.813 197.961H81.5273C84.0915 197.961 86.1702 195.895 86.1702 193.346V190.576C86.1702 188.027 84.0915 185.961 81.5273 185.961Z" fill="white" fill-opacity="0.05"/>
<path d="M159.499 185.961H97.8412C95.2615 185.961 93.1702 188.027 93.1702 190.576V193.346C93.1702 195.895 95.2615 197.961 97.8412 197.961H159.499C162.079 197.961 164.17 195.895 164.17 193.346V190.576C164.17 188.027 162.079 185.961 159.499 185.961Z" fill="white" fill-opacity="0.05"/>
<path d="M187.605 185.961H175.735C173.214 185.961 171.17 188.027 171.17 190.576V193.346C171.17 195.895 173.214 197.961 175.735 197.961H187.605C190.126 197.961 192.17 195.895 192.17 193.346V190.576C192.17 188.027 190.126 185.961 187.605 185.961Z" fill="white" fill-opacity="0.05"/>
<path d="M94.5273 206.961H38.813C36.2488 206.961 34.1702 209.027 34.1702 211.576V214.346C34.1702 216.895 36.2488 218.961 38.813 218.961H94.5273C97.0915 218.961 99.1702 216.895 99.1702 214.346V211.576C99.1702 209.027 97.0915 206.961 94.5273 206.961Z" fill="white" fill-opacity="0.05"/>
<path d="M136.565 206.961H110.775C108.232 206.961 106.17 209.027 106.17 211.576V214.346C106.17 216.895 108.232 218.961 110.775 218.961H136.565C139.108 218.961 141.17 216.895 141.17 214.346V211.576C141.17 209.027 139.108 206.961 136.565 206.961Z" fill="white" fill-opacity="0.05"/>
<path d="M203.561 206.961H153.779C151.234 206.961 149.17 209.027 149.17 211.576V214.346C149.17 216.895 151.234 218.961 153.779 218.961H203.561C206.106 218.961 208.17 216.895 208.17 214.346V211.576C208.17 209.027 206.106 206.961 203.561 206.961Z" fill="white" fill-opacity="0.05"/>
<path d="M240.482 206.961H219.857C217.269 206.961 215.17 209.027 215.17 211.576V214.346C215.17 216.895 217.269 218.961 219.857 218.961H240.482C243.071 218.961 245.17 216.895 245.17 214.346V211.576C245.17 209.027 243.071 206.961 240.482 206.961Z" fill="white" fill-opacity="0.05"/>
<path d="M281.448 206.961H256.892C254.284 206.961 252.17 209.027 252.17 211.576V214.346C252.17 216.895 254.284 218.961 256.892 218.961H281.448C284.056 218.961 286.17 216.895 286.17 214.346V211.576C286.17 209.027 284.056 206.961 281.448 206.961Z" fill="white" fill-opacity="0.05"/>
<path d="M350.543 206.961H297.797C295.241 206.961 293.17 209.027 293.17 211.576V214.346C293.17 216.895 295.241 218.961 297.797 218.961H350.543C353.098 218.961 355.17 216.895 355.17 214.346V211.576C355.17 209.027 353.098 206.961 350.543 206.961Z" fill="white" fill-opacity="0.05"/>
</g>
<circle cx="33.9866" cy="30.6216" r="4.35993" fill="#FC165B"/>
<circle cx="47.9383" cy="30.6216" r="4.35993" fill="#FCA016"/>
<circle cx="61.89" cy="30.6216" r="4.35993" fill="#16FCA9"/>
<g filter="url(#filter2_b_1393_470)">
<rect x="6.81934" y="341.986" width="129.39" height="110.455" rx="10" fill="white" fill-opacity="0.05"/>
</g>
<path d="M81.245 379.33H62.8359C60.8025 379.33 59.1541 380.978 59.1541 383.012V412.467C59.1541 414.5 60.8025 416.148 62.8359 416.148H81.245C83.2784 416.148 84.9268 414.5 84.9268 412.467V383.012C84.9268 380.978 83.2784 379.33 81.245 379.33Z" stroke="white" stroke-opacity="0.4" stroke-width="2" stroke-linecap="round" stroke-linejoin="round"/>
<path d="M72.0405 408.785H72.058" stroke="white" stroke-opacity="0.4" stroke-width="2" stroke-linecap="round" stroke-linejoin="round"/>
<g filter="url(#filter3_b_1393_470)">
<rect x="151.989" y="341.986" width="129.39" height="110.455" rx="10" fill="white" fill-opacity="0.05"/>
</g>
<g opacity="0.4">
<path d="M231.937 381.172H202.482C200.449 381.172 198.8 382.82 198.8 384.854V403.263C198.8 405.296 200.449 406.945 202.482 406.945H231.937C233.97 406.945 235.619 405.296 235.619 403.263V384.854C235.619 382.82 233.97 381.172 231.937 381.172Z" stroke="white" stroke-width="2" stroke-linecap="round" stroke-linejoin="round"/>
<path d="M209.846 414.309H224.573" stroke="white" stroke-width="2" stroke-linecap="round" stroke-linejoin="round"/>
<path d="M217.209 406.943V414.307" stroke="white" stroke-width="2" stroke-linecap="round" stroke-linejoin="round"/>
</g>
<g filter="url(#filter4_b_1393_470)">
<rect x="297.158" y="341.986" width="129.39" height="110.455" rx="10" fill="white" fill-opacity="0.05"/>
</g>
<g opacity="0.4">
<path d="M362.378 416.148C372.545 416.148 380.788 407.906 380.788 397.739C380.788 387.572 372.545 379.33 362.378 379.33C352.211 379.33 343.969 387.572 343.969 397.739C343.969 407.906 352.211 416.148 362.378 416.148Z" stroke="white" stroke-width="2" stroke-linecap="round" stroke-linejoin="round"/>
<path d="M343.969 397.74H380.788" stroke="white" stroke-width="2" stroke-linecap="round" stroke-linejoin="round"/>
<path d="M362.379 379.33C366.983 384.371 369.6 390.913 369.742 397.739C369.6 404.565 366.983 411.107 362.379 416.148C357.774 411.107 355.157 404.565 355.015 397.739C355.157 390.913 357.774 384.371 362.379 379.33V379.33Z" stroke="white" stroke-width="2" stroke-linecap="round" stroke-linejoin="round"/>
</g>
<path opacity="0.3" d="M214.579 285.708C217.209 285.708 219.313 283.604 219.313 280.974C219.313 278.344 217.209 276.24 214.579 276.24C211.95 276.24 209.846 278.344 209.846 280.974C209.846 283.604 211.95 285.708 214.579 285.708ZM214.579 285.708V311.481V341.987" stroke="white" stroke-opacity="0.1" stroke-width="3"/>
<path d="M214.58 276.24C211.95 276.24 209.846 278.344 209.846 280.974C209.846 283.604 211.95 285.708 214.58 285.708C217.209 285.708 219.313 283.604 219.313 280.974C219.313 278.344 217.209 276.24 214.58 276.24Z" fill="#6016FC"/>
<path d="M214.58 285.708C217.209 285.708 219.313 283.604 219.313 280.974C219.313 278.344 217.209 276.24 214.58 276.24C211.95 276.24 209.846 278.344 209.846 280.974C209.846 283.604 211.95 285.708 214.58 285.708ZM214.58 285.708V296.74C214.58 307.786 205.625 316.74 194.58 316.74H82.0403C76.5175 316.74 72.0403 321.217 72.0403 326.74V341.987" stroke="white" stroke-opacity="0.1" stroke-width="3"/>
<path opacity="0.3" d="M214.579 285.708C217.209 285.708 219.313 283.604 219.313 280.974C219.313 278.344 217.209 276.24 214.579 276.24C211.95 276.24 209.846 278.344 209.846 280.974C209.846 283.604 211.95 285.708 214.579 285.708ZM214.579 285.708V296.74C214.579 307.786 223.534 316.74 234.579 316.74H351.853C357.375 316.74 361.853 321.217 361.853 326.74V341.987" stroke="white" stroke-opacity="0.1" stroke-width="3"/>
</g>
<defs>
<filter id="filter0_d_1393_470" x="0.715576" y="0.103516" width="429.832" height="460.338" filterUnits="userSpaceOnUse" color-interpolation-filters="sRGB">
<feFlood flood-opacity="0" result="BackgroundImageFix"/>
<feColorMatrix in="SourceAlpha" type="matrix" values="0 0 0 0 0 0 0 0 0 0 0 0 0 0 0 0 0 0 127 0" result="hardAlpha"/>
<feOffset dy="4"/>
<feGaussianBlur stdDeviation="2"/>
<feComposite in2="hardAlpha" operator="out"/>
<feColorMatrix type="matrix" values="0 0 0 0 0 0 0 0 0 0 0 0 0 0 0 0 0 0 0.25 0"/>
<feBlend mode="normal" in2="BackgroundImageFix" result="effect1_dropShadow_1393_470"/>
<feBlend mode="normal" in="SourceGraphic" in2="effect1_dropShadow_1393_470" result="shape"/>
</filter>
<filter id="filter1_b_1393_470" x="-69.2844" y="-73.8965" width="567.728" height="428.871" filterUnits="userSpaceOnUse" color-interpolation-filters="sRGB">
<feFlood flood-opacity="0" result="BackgroundImageFix"/>
<feGaussianBlur in="BackgroundImageFix" stdDeviation="37"/>
<feComposite in2="SourceAlpha" operator="in" result="effect1_backgroundBlur_1393_470"/>
<feBlend mode="normal" in="SourceGraphic" in2="effect1_backgroundBlur_1393_470" result="shape"/>
</filter>
<filter id="filter2_b_1393_470" x="-67.1807" y="267.986" width="277.39" height="258.455" filterUnits="userSpaceOnUse" color-interpolation-filters="sRGB">
<feFlood flood-opacity="0" result="BackgroundImageFix"/>
<feGaussianBlur in="BackgroundImageFix" stdDeviation="37"/>
<feComposite in2="SourceAlpha" operator="in" result="effect1_backgroundBlur_1393_470"/>
<feBlend mode="normal" in="SourceGraphic" in2="effect1_backgroundBlur_1393_470" result="shape"/>
</filter>
<filter id="filter3_b_1393_470" x="77.9888" y="267.986" width="277.39" height="258.455" filterUnits="userSpaceOnUse" color-interpolation-filters="sRGB">
<feFlood flood-opacity="0" result="BackgroundImageFix"/>
<feGaussianBlur in="BackgroundImageFix" stdDeviation="37"/>
<feComposite in2="SourceAlpha" operator="in" result="effect1_backgroundBlur_1393_470"/>
<feBlend mode="normal" in="SourceGraphic" in2="effect1_backgroundBlur_1393_470" result="shape"/>
</filter>
<filter id="filter4_b_1393_470" x="223.158" y="267.986" width="277.39" height="258.455" filterUnits="userSpaceOnUse" color-interpolation-filters="sRGB">
<feFlood flood-opacity="0" result="BackgroundImageFix"/>
<feGaussianBlur in="BackgroundImageFix" stdDeviation="37"/>
<feComposite in2="SourceAlpha" operator="in" result="effect1_backgroundBlur_1393_470"/>
<feBlend mode="normal" in="SourceGraphic" in2="effect1_backgroundBlur_1393_470" result="shape"/>
</filter>
<clipPath id="clip0_1393_470">
<rect width="377.65" height="200.923" fill="white" transform="translate(34.1702 57.9609)"/>
</clipPath>
</defs>
</svg>
